<svg width="21" height="20" viewBox="0 0 21 20" fill="none" xmlns="http://www.w3.org/2000/svg">
<g clip-path="url(#clip0_37_214)">
<g clip-path="url(#clip1_37_214)">
<path fill-rule="evenodd" clip-rule="evenodd" d="M10.8909 0C16.4139 0 20.8909 4.58993 20.8909 10.2529C20.8909 14.7819 18.0289 18.624 14.0579 19.981C13.5509 20.082 13.3709 19.7618 13.3709 19.4888C13.3709 19.1508 13.3829 18.0468 13.3829 16.6748C13.3829 15.7188 13.0629 15.0949 12.7039 14.7769C14.9309 14.5229 17.2709 13.6558 17.2709 9.71777C17.2709 8.59777 16.8829 7.68382 16.2409 6.96582C16.3449 6.70682 16.6879 5.66395 16.1429 4.25195C16.1429 4.25195 15.3049 3.97722 13.3959 5.30322C12.5969 5.07622 11.7409 4.96201 10.8909 4.95801C10.0409 4.96201 9.18589 5.07622 8.38789 5.30322C6.47689 3.97722 5.63689 4.25195 5.63689 4.25195C5.09389 5.66395 5.43689 6.70682 5.53989 6.96582C4.90089 7.68382 4.50989 8.59777 4.50989 9.71777C4.50989 13.6458 6.84489 14.5262 9.06589 14.7852C8.77989 15.0412 8.52089 15.4928 8.43089 16.1558C7.86089 16.4178 6.41288 16.8712 5.52088 15.3042C5.52088 15.3042 4.99188 14.3191 3.98788 14.2471C3.98788 14.2471 3.01288 14.2341 3.91988 14.8701C3.91988 14.8701 4.57488 15.1851 5.02988 16.3701C5.02988 16.3701 5.61689 18.2001 8.39889 17.5801C8.40389 18.4371 8.41289 19.2448 8.41289 19.4888C8.41289 19.7598 8.22888 20.0769 7.72988 19.9819C3.75588 18.6269 0.890884 14.7829 0.890884 10.2529C0.890884 4.58993 5.36888 0 10.8909 0Z" fill="white"/>
</g>
</g>
<defs>
<clipPath id="clip0_37_214">
<rect width="20" height="20" fill="white" transform="translate(0.890884)"/>
</clipPath>
<clipPath id="clip1_37_214">
<rect width="20" height="20" fill="white" transform="translate(0.890884)"/>
</clipPath>
</defs>
</svg>
