<svg width="16" height="20" viewBox="0 0 16 20" fill="none" xmlns="http://www.w3.org/2000/svg">
<g clip-path="url(#clip0_37_215)">
<path d="M5.20665 3C4.56507 3 4.56507 2.02463 5.20665 2.02463H6.64359V0.727065C6.64359 0.457771 6.8621 0.239502 7.13139 0.239502H11.6272C11.8965 0.239502 12.115 0.457771 12.115 0.727065V2.02463H14.6213C14.8906 2.02463 15.1091 2.24314 15.1091 2.51243V19.2729C15.1091 19.5422 14.8906 19.7604 14.6213 19.7604H1.37867C1.10937 19.7604 0.890869 19.5422 0.890869 19.2729V2.51243C0.890869 2.24314 1.10937 2.02463 1.37867 2.02463H2.98215C3.62349 2.02463 3.62349 3 2.98215 3H1.86623V18.7851H14.1337V3C11.158 3 8.18234 3 5.20665 3ZM7.61895 2.02463H11.1396V1.21486H7.61895V2.02463ZM3.08537 13.3801C2.44403 13.3801 2.44403 12.4047 3.08537 12.4047H7.53722C8.1788 12.4047 8.1788 13.3801 7.53722 13.3801H3.08537ZM3.08537 17.0824C2.44403 17.0824 2.44403 16.107 3.08537 16.107H7.53722C8.1788 16.107 8.1788 17.0824 7.53722 17.0824H3.08537ZM3.08537 15.2314C2.44403 15.2314 2.44403 14.256 3.08537 14.256H7.53722C8.1788 14.256 8.1788 15.2314 7.53722 15.2314H3.08537ZM10.0494 12.8233H12.9146C13.1839 12.8233 13.4021 13.0418 13.4021 13.3111V16.176C13.4021 16.4453 13.1839 16.6638 12.9146 16.6638H10.0494C9.78015 16.6638 9.56188 16.4453 9.56188 16.176V13.3111C9.56188 13.0418 9.78015 12.8233 10.0494 12.8233ZM12.4268 13.7987H10.5372V15.6884H12.4268V13.7987ZM6.67997 7.84373C7.0017 7.84917 7.26155 7.58011 7.26155 7.26216C7.26155 6.93806 7.00407 6.68034 6.67997 6.68034C6.35658 6.68034 6.09839 6.93877 6.09839 7.26216C6.09839 7.58058 6.35776 7.84917 6.67997 7.84373ZM7.16777 8.74091V10.1521C8.29715 9.92225 9.11211 8.92492 9.11211 7.76909C9.11211 6.42569 8.02337 5.33694 6.67997 5.33694C5.33681 5.33694 4.24806 6.42569 4.24806 7.76909C4.24806 8.92492 5.06279 9.92225 6.19241 10.1521V8.74067C5.5598 8.53067 5.12279 7.93563 5.12279 7.26216C5.12279 6.40467 5.82248 5.70498 6.67997 5.70498C7.53722 5.70498 8.23715 6.4049 8.23715 7.26216C8.23715 7.93515 7.80037 8.53138 7.16777 8.74091ZM6.67997 4.36158C8.56195 4.36158 10.0875 5.88711 10.0875 7.76909C10.0875 9.65084 8.56195 11.1764 6.67997 11.1764C4.79822 11.1764 3.2727 9.65084 3.2727 7.76909C3.2727 5.88711 4.79822 4.36158 6.67997 4.36158Z" fill="white"/>
</g>
<defs>
<clipPath id="clip0_37_215">
<rect width="14.2182" height="19.5209" fill="white" transform="translate(0.890869 0.239502)"/>
</clipPath>
</defs>
</svg>
