<svg width="28" height="40" viewBox="0 0 28 40" fill="none" xmlns="http://www.w3.org/2000/svg">
<g clip-path="url(#clip0_32_212)">
<path d="M1.98801 22.2198C1.98801 22.2198 1.96475 20.0116 1.92752 16.832C1.89029 13.6523 4.73835 9.42329 6.92791 8.48673C9.11748 7.55017 19.4173 5.71894 22.4305 9.66761C25.4438 13.6163 24.6236 19.5462 24.8505 20.4898C25.0773 21.4333 24.5887 23.2611 24.5887 23.2611C24.5887 23.2611 25.0331 23.7683 25.7416 23.2611C26.4502 22.7538 27.4868 22.1849 27.602 23.8125C27.766 26.1301 26.6072 28.6605 25.3949 29.7483C24.2967 30.7337 23.936 30.5359 23.7824 30.0473C23.7662 29.9961 23.7534 29.9426 23.7406 29.8868C23.6126 29.2899 23.0355 32.7092 19.4359 36.4345C15.8363 40.1598 9.22917 40.8509 6.68592 37.6363C4.14268 34.4218 3.12003 32.6697 2.41615 29.3725C2.41615 29.3725 2.00896 31.0839 0.375508 25.4704C0.375508 25.4704 -0.111967 23.4053 0.95722 22.9574C1.29694 22.8155 1.71577 23.3844 1.71577 23.3844L1.98801 22.2198Z" fill="white"/>
<path d="M17.2719 27.1213C17.2719 27.1213 17.4662 27.4994 17.7734 27.7798C18.0805 28.0602 18.8263 28.3359 18.8425 29.1131C18.8588 29.8902 18.2108 30.9431 18.2108 30.9431C18.2108 30.9431 18.81 29.8588 18.5028 29.0328C18.1957 28.2068 17.6477 27.9892 17.6128 27.781C17.5779 27.5727 17.2719 27.1213 17.2719 27.1213Z" fill="#BABABA"/>
<path d="M7.38165 27.1643C7.38165 27.1643 6.90697 28.0567 6.59401 28.3603C6.28105 28.664 5.94831 29.319 5.88199 29.6133C5.81568 29.9077 5.88199 30.3638 5.88199 30.3638C5.88199 30.3638 5.61557 29.6704 5.72958 29.1678C5.8436 28.664 6.38459 27.9497 6.78365 27.6285C7.1827 27.3074 7.38165 27.1643 7.38165 27.1643Z" fill="#BABABA"/>
<path d="M14.09 24.6351C14.09 24.6351 15.2499 24.8154 15.4814 25.7426C15.7129 26.6699 15.1975 27.1213 15.1975 27.1213C15.1975 27.1213 15.7257 27.0573 15.8153 26.3488C15.9061 25.6403 15.5977 24.8154 14.09 24.6351Z" fill="black"/>
<path d="M7.52242 31.2701C7.52242 31.2701 9.32573 34.3089 12.8265 33.5888C15.6047 33.0175 16.4063 31.2701 16.4063 31.2701C16.4063 31.2701 13.6769 32.3811 11.9167 32.6034C10.3833 32.7976 7.52242 31.2701 7.52242 31.2701Z" fill="black"/>
<path d="M25.7405 23.2611C25.7405 23.2611 27.0028 22.0278 27.538 22.9458C28.0731 23.8637 27.6148 26.5791 26.6386 28.3766C25.6625 30.1741 25.0133 30.3638 25.0133 30.3638C25.0133 30.3638 27.2704 27.8496 27.4228 25.0725C27.5752 22.2954 26.62 23.0796 25.7405 23.2611Z" fill="black"/>
<path d="M2.41383 29.5622C2.41383 29.5622 4.70112 39.2023 11.5816 39.193C16.098 39.186 20.7855 34.9558 20.7855 34.9558C20.7855 34.9558 16.5948 40.4239 11.5816 39.9736C4.09846 39.3023 2.41383 29.5622 2.41383 29.5622Z" fill="black"/>
<path d="M17.1416 21.6264C17.6152 21.6264 17.9991 21.2426 17.9991 20.769C17.9991 20.2954 17.6152 19.9116 17.1416 19.9116C16.6681 19.9116 16.2842 20.2954 16.2842 20.769C16.2842 21.2426 16.6681 21.6264 17.1416 21.6264Z" fill="black"/>
<path d="M6.98147 21.5266C7.44386 21.4979 7.79486 21.0914 7.76546 20.6187C7.73605 20.1461 7.33737 19.7862 6.87497 19.815C6.41258 19.8438 6.06158 20.2502 6.09099 20.7229C6.12039 21.1956 6.51908 21.5554 6.98147 21.5266Z" fill="black"/>
<path d="M14.7694 21.1983C14.7694 21.1983 15.6745 19.8394 16.9508 19.8127C18.2271 19.7859 20.0688 21.1983 20.0688 21.1983C20.0688 21.1983 18.3399 20.1594 17.2196 20.093C16.0992 20.0267 14.8985 21.1587 14.8985 21.1587L14.7694 21.1983Z" fill="black"/>
<path d="M9.26988 20.954C9.26988 20.954 8.30192 19.6521 7.05473 19.7033C5.80753 19.7545 4.0973 21.2751 4.0973 21.2751C4.0973 21.2751 5.72028 20.1338 6.81041 20C7.90053 19.8662 9.14191 20.9237 9.14191 20.9237L9.26988 20.954Z" fill="black"/>
<path d="M14.5937 18.1525C14.5937 18.1525 15.6303 17.1112 16.539 17.053C17.4476 16.9949 18.269 17.1403 19.2265 17.5382C20.1851 17.9361 21.1298 18.8075 21.1298 18.8075C21.1298 18.8075 18.0328 17.3962 16.6797 17.829C14.8543 18.4119 14.5937 18.1525 14.5937 18.1525Z" fill="black"/>
<path d="M9.5049 18.1618C9.5049 18.1618 8.50901 17.1205 7.63527 17.0623C6.76154 17.0042 5.9739 17.1496 5.05247 17.5475C4.1322 17.9454 3.22357 18.8168 3.22357 18.8168C3.22357 18.8168 6.19961 17.4055 7.49915 17.8383C9.25476 18.42 9.5049 18.1618 9.5049 18.1618Z" fill="black"/>
<path d="M7.20481 30.7105C7.20481 30.7105 9.23847 29.5645 10.4554 29.5645C11.6724 29.5645 12.0691 29.7518 12.0691 29.7518C12.0691 29.7518 12.7241 29.5412 13.4838 29.5645C14.2435 29.5878 16.0445 30.2288 16.7228 30.3638C17.4011 30.4999 17.8641 30.3638 17.8641 30.3638C17.8641 30.3638 16.9334 31.0816 16.6064 30.9431C16.2795 30.8035 15.6012 30.2032 14.3855 30.1881C13.1697 30.173 12.2471 30.323 11.9248 30.3649C11.6026 30.4068 10.8079 30.0636 9.91908 30.1881C9.03022 30.3126 7.7679 30.7814 7.7679 30.7814C7.7679 30.7814 7.90868 31.462 8.30541 31.7529C8.7033 32.0437 8.7033 32.0437 8.7033 32.0437C8.7033 32.0437 7.53289 31.6924 7.20481 30.7105Z" fill="black"/>
<path d="M1.56802 23.2611C1.56802 23.2611 1.07123 22.6398 0.573289 23.4809C0.0753431 24.3221 1.05146 27.6879 1.40514 28.4534C1.75882 29.2189 1.98801 29.5622 1.98801 29.5622C1.98801 29.5622 0.496503 27.7356 0.267308 25.0725C0.0381134 22.4094 1.10846 22.2768 1.56802 23.2611Z" fill="black"/>
<path d="M9.5049 27.1213C9.5049 27.1213 9.60728 26.7944 9.99819 26.699C10.3891 26.6036 10.9894 27.2423 11.2465 27.4226C11.5037 27.6041 11.5037 27.6041 11.5037 27.6041C11.5037 27.6041 10.9987 27.2225 10.5508 27.0515C10.1029 26.8805 9.84578 27.1155 9.73176 27.283C9.61775 27.4517 9.07443 27.632 8.64513 27.0317C8.64513 27.0317 9.36296 27.468 9.5049 27.1213Z" fill="black"/>
<path d="M12.3937 27.6507C12.3937 27.6507 12.5763 27.696 12.9754 27.3319C13.4431 26.9049 13.4454 26.8968 13.7514 26.8619C14.0574 26.8269 14.5367 27.2469 14.7124 27.2644C14.8869 27.2818 14.66 27.276 14.66 27.276C14.66 27.276 14.4983 27.2818 14.09 27.2027C13.6816 27.1236 13.6467 27.1411 13.2616 27.3517C12.8777 27.5622 12.9184 27.6681 12.3937 27.6507Z" fill="black"/>
<path d="M1.98801 11.4453C1.8612 13.7687 1.80303 15.7069 1.91937 19.3601C1.91937 19.3601 2.16951 15.2963 2.771 13.9048C3.37249 12.5133 5.70748 9.05564 11.9644 8.94279C18.2213 8.82994 21.6801 11.386 22.9576 12.5517C24.235 13.7175 23.409 16.4329 23.4834 17.0484C23.5579 17.6638 24.2734 18.5236 24.235 20.6689C24.1966 22.8143 24.2362 25.2947 24.2362 25.2947C24.2362 25.2947 24.3223 23.7974 24.7981 23.2599C26.0918 21.7986 26.2477 20.2327 26.2477 20.2327L26.9446 12.7763C26.9446 12.7763 26.9656 10.9101 26.7783 9.96893C26.5909 9.02772 26.5898 9.02772 26.5898 9.02772C26.5898 9.02772 25.7731 7.17555 25.2716 6.42165C24.7702 5.66775 23.4509 4.44383 23.1367 4.28677C22.8226 4.1297 22.1955 4.00405 22.1955 4.00405L21.6929 3.34439H21.1298C21.1298 3.34439 20.782 2.08789 20.2177 1.97853C19.6523 1.86917 19.3079 2.12047 19.3079 2.12047C19.3079 2.12047 17.9583 1.11644 16.6402 0.770898C15.322 0.425361 14.7787 0.425361 14.7787 0.425361C14.7787 0.425361 14.2051 0.304365 13.5862 0.222925C12.9672 0.142649 12.5345 0.456774 12.5345 0.456774L11.6002 0.0169992L10.9906 0.222925L10.2053 0.0169992L9.79692 0.222925C9.79692 0.222925 9.23149 0.111237 8.85571 0.0169992C8.47992 -0.0772382 7.9145 0.236886 7.94591 0.551011L7.6632 0.000711306C7.6632 0.000711306 5.04898 2.31244 4.5778 3.28622L4.09846 3.29902C4.09846 3.29902 3.55631 3.84234 3.22357 5.46997C2.89083 7.0976 3.65171 8.56351 3.65171 8.56351C3.65171 8.56351 3.16307 7.85732 2.89199 7.0976C2.89199 7.0976 2.42546 7.42336 2.41499 9.10567C2.40452 10.788 2.40452 10.788 2.40452 10.788L2.20441 9.87237C2.20325 9.87586 2.04269 10.4599 1.98801 11.4453Z" fill="black"/>
<path d="M23.7057 29.5622C23.7057 29.5622 23.5765 29.9124 24.0675 30.2486C24.3281 30.4277 24.9121 30.166 25.3926 29.7483C25.8161 29.3807 26.1558 28.8606 26.1558 28.8606C26.1558 28.8606 25.7172 29.817 25.0785 30.3347C24.7318 30.6151 24.1931 30.7023 23.9383 30.5848C23.2147 30.2486 23.7057 29.5622 23.7057 29.5622Z" fill="black"/>
<path d="M1.86702 22.1L1.87749 17.7743L1.95776 19.6637L1.98801 22.2198L1.86702 22.1Z" fill="black"/>
</g>
<defs>
<clipPath id="clip0_32_212">
<rect width="27.529" height="40" fill="white" transform="translate(0.235535)"/>
</clipPath>
</defs>
</svg>
