<svg width="21" height="20" viewBox="0 0 21 20" fill="none" xmlns="http://www.w3.org/2000/svg">
<g clip-path="url(#clip0_37_213)">
<path d="M19.2904 0.00106134H2.60333C2.38825 -0.00901343 2.17328 0.0234236 1.97074 0.0965345C1.76821 0.169645 1.58209 0.28198 1.42302 0.427101C1.26396 0.572236 1.13508 0.747319 1.04377 0.942314C0.952455 1.13732 0.900494 1.34842 0.890869 1.56353V18.2882C0.903469 18.7383 1.08794 19.1667 1.40639 19.485C1.72485 19.8035 2.15314 19.988 2.60333 20.0006H19.2904C19.7281 19.9811 20.1407 19.7909 20.4398 19.4708C20.7389 19.1507 20.9007 18.7262 20.8904 18.2882V1.56353C20.894 1.35416 20.8548 1.14627 20.7752 0.952602C20.6955 0.758944 20.5772 0.583585 20.4273 0.437276C20.2775 0.29098 20.0994 0.176833 19.9039 0.101822C19.7084 0.0268111 19.4997 -0.00747596 19.2904 0.00106134ZM7.14073 16.6757H4.22829V7.76342H7.14073V16.6757ZM5.75326 6.41341C5.55002 6.4205 5.34752 6.38548 5.15847 6.31055C4.96941 6.23563 4.79789 6.12242 4.65469 5.97804C4.51149 5.83365 4.39968 5.66122 4.3263 5.47156C4.25292 5.2819 4.21956 5.07912 4.22829 4.87595C4.21931 4.67058 4.25334 4.46561 4.32823 4.27418C4.40311 4.08273 4.51719 3.90906 4.66312 3.7643C4.80907 3.61953 4.98365 3.50687 5.17568 3.43354C5.36773 3.36021 5.57297 3.32783 5.77826 3.33848C5.98149 3.33141 6.184 3.36642 6.37304 3.44135C6.5621 3.51627 6.73362 3.62948 6.87682 3.77386C7.02003 3.91825 7.13184 4.09068 7.20521 4.28034C7.2786 4.47 7.31196 4.67278 7.30322 4.87595C7.31221 5.08132 7.27817 5.28629 7.20329 5.47772C7.1284 5.66917 7.01433 5.84284 6.86839 5.9876C6.72245 6.13237 6.54786 6.24503 6.35583 6.31835C6.16379 6.39169 5.95854 6.42406 5.75326 6.41341ZM17.5655 16.6757H14.6406V11.8008C14.6406 10.6384 14.2281 9.83837 13.1906 9.83837C12.8683 9.84112 12.5547 9.94349 12.293 10.1315C12.0311 10.3195 11.8339 10.5839 11.7281 10.8883C11.6469 11.1166 11.6129 11.359 11.6281 11.6008V16.6757H8.75319V7.76342H11.6281V9.01339C11.8837 8.54378 12.2641 8.15404 12.7273 7.88704C13.1906 7.62017 13.7186 7.48653 14.2531 7.50089C16.1405 7.50089 17.5655 8.7509 17.5655 11.4133V16.6757Z" fill="white"/>
</g>
<defs>
<clipPath id="clip0_37_213">
<rect width="20" height="20.0014" fill="white" transform="translate(0.890869 -0.000732422)"/>
</clipPath>
</defs>
</svg>
